<svg xmlns="http://www.w3.org/2000/svg" xmlns:xlink="http://www.w3.org/1999/xlink" width="52" height="77" xmlns:v="https://vecta.io/nano"><style><![CDATA[.B{fill:#fff}.C{stroke:#828282}.D{stroke-width:.5}]]></style><g fill="none" fill-rule="evenodd"><path d="M39.099 39.338S34.044 49.45 28.91 56.43c-2.043 2.778-4.099 5.059-5.853 6.011-1.717.931-3.171 2.378-4.374 3.981-3.116 4.151-4.554 9.348-4.554 9.348L1 55.907s.448-19.416 2.024-22.664c2.298-4.733 3.408-14.296 4.29-16.199.655-1.413 2.525-8.708 2.705-9.244.077-.231.7-.585 1.508-.585.648 0 1.749.627 2.027 1.915 1.404 6.51-.286 10.803-.267 10.994.495 5.003-.994 8.717.05 9.7.039.037.111.019.213-.046 1.81-1.162 13.044-17.539 14.428-17.893 1.461-.373 11.121 27.453 11.121 27.453" class="B"/><path d="M39.099 39.338S34.044 49.45 28.91 56.43c-2.043 2.778-4.099 5.059-5.853 6.011-1.717.931-3.171 2.378-4.374 3.981-3.116 4.151-4.554 9.348-4.554 9.348L1 55.907s.448-19.416 2.024-22.664c2.298-4.733 3.408-14.296 4.29-16.199.655-1.413 2.525-8.708 2.705-9.244.077-.231.7-.585 1.508-.585.648 0 1.749.627 2.027 1.915 1.404 6.51-.286 10.803-.267 10.994.495 5.003-.994 8.717.05 9.7.039.037.111.019.213-.046 1.81-1.162 13.044-17.539 14.428-17.893 1.461-.373 11.121 27.453 11.121 27.453z" class="C D"/><path d="M50.578 5.116l-4.066 5.96-3.989 5.85c-.244.293-.525.395-.83.366-.957-.091-2.142-1.472-3.065-2.237l-.094-.076a2.88 2.88 0 0 1-.382-4.044l6.098-7.371v-.001l1.809-2.186a2.88 2.88 0 0 1 4.043-.382l.094.077a2.88 2.88 0 0 1 .382 4.044" class="B"/><path d="M50.578 5.116l-4.066 5.96-3.989 5.85c-.244.293-.525.395-.83.366-.957-.091-2.142-1.472-3.065-2.237l-.094-.076a2.88 2.88 0 0 1-.382-4.044l6.098-7.371v-.001l1.809-2.186a2.88 2.88 0 0 1 4.043-.382l.094.077a2.88 2.88 0 0 1 .382 4.044z" class="C D"/><use xlink:href="#B" fill="#2b478b"/><use xlink:href="#B" class="B"/><path d="M43.07 4.47v49.12c0 1.67-1.35 3.03-3.01 3.03H18.1c-1.65 0-3.01-1.36-3.01-3.03V4.47a3.03 3.03 0 0 1 3.01-3.02h5.06c-.02.08-.03.16-.03.25v.21a1.36 1.36 0 0 0 1.36 1.36h9.18a1.36 1.36 0 0 0 1.36-1.36V1.7c0-.09-.01-.17-.03-.25h5.06c1.66 0 3.01 1.36 3.01 3.02z" class="C D"/><path d="M43.07 53.59c0 1.67-1.35 3.03-3.01 3.03H18.1c-1.65 0-3.01-1.36-3.01-3.03V4.47a3.03 3.03 0 0 1 3.01-3.02h5.06c-.02.08-.03.16-.03.25v.21a1.36 1.36 0 0 0 1.36 1.36h9.18a1.36 1.36 0 0 0 1.36-1.36V1.7c0-.09-.01-.17-.03-.25h5.06c1.66 0 3.01 1.36 3.01 3.02v49.12zM40.52 0H17.64c-2.25 0-4.09 1.84-4.09 4.09v50.28c0 2.25 1.84 4.09 4.09 4.09h22.88c2.25 0 4.09-1.84 4.09-4.09V4.09c0-2.25-1.84-4.09-4.09-4.09h0z" fill="#3f8abf"/><path d="M48.554 27.624l-.606.23-4.077 1.55c-.096.036-.193.067-.289.091-1.35.351-2.787-.368-3.293-1.701l-.06-.156a2.79 2.79 0 0 1 1.609-3.583l3.801-1.444.277-.105.606-.23c1.428-.543 3.039.181 3.582 1.609l.059.157c.543 1.427-.181 3.04-1.609 3.582" class="B"/><path d="M48.554 27.624l-.606.23-4.077 1.55c-.096.036-.193.067-.289.091-1.35.351-2.787-.368-3.293-1.701l-.06-.156a2.79 2.79 0 0 1 1.609-3.583l3.801-1.444.277-.105.606-.23c1.428-.543 3.039.181 3.582 1.609l.059.157c.543 1.427-.181 3.04-1.609 3.582z" class="C D"/><path d="M46.704 33.356l-3.144.856c-.956.26-1.95-.309-2.21-1.264l-.097-.356c-.26-.955.309-1.95 1.264-2.21l3.144-.856c.956-.26 1.95.309 2.21 1.264l.097.356c.26.955-.309 1.95-1.264 2.21" class="B"/><path d="M46.704 33.356l-3.144.856c-.956.26-1.95-.309-2.21-1.264l-.097-.356c-.26-.955.309-1.95 1.264-2.21l3.144-.856c.956-.26 1.95.309 2.21 1.264l.097.356c.26.955-.309 1.95-1.264 2.21z" class="C D"/><path d="M48.455 21.599l-.068.023-4.122 1.058c-1.812.466-3.687-.515-4.165-2.179l-.245-.852c-.46-1.598.528-3.269 2.212-3.811l1.361-.349 2.761-.709c1.813-.466 3.687.515 4.166 2.179l.245.853c.453 1.576-.502 3.222-2.145 3.787" class="B"/><path d="M48.455 21.599l-.068.023-4.122 1.058c-1.812.466-3.687-.515-4.165-2.179l-.245-.852c-.46-1.598.528-3.269 2.212-3.811l1.361-.349 2.761-.709c1.813-.466 3.687.515 4.166 2.179l.245.853c.453 1.576-.502 3.222-2.145 3.787z" class="C D"/><path d="M34.946 25.977h-2.808v-2.808c0-.741-.601-1.342-1.342-1.342h-3.432c-.741 0-1.342.601-1.342 1.342v2.808h-2.808c-.741 0-1.342.601-1.342 1.342v3.432c0 .741.601 1.342 1.342 1.342h2.808v2.808c0 .741.601 1.342 1.342 1.342h3.432c.741 0 1.342-.601 1.342-1.342v-2.808h2.808c.741 0 1.342-.601 1.342-1.342v-3.432c0-.741-.601-1.342-1.342-1.342" fill="#f8b3c0"/></g><defs ><path id="B" d="M43.07 4.47v49.12c0 1.67-1.35 3.03-3.01 3.03H18.1c-1.65 0-3.01-1.36-3.01-3.03V4.47a3.03 3.03 0 0 1 3.01-3.02h5.06c-.02.08-.03.16-.03.25v.21a1.36 1.36 0 0 0 1.36 1.36h9.18a1.36 1.36 0 0 0 1.36-1.36V1.7c0-.09-.01-.17-.03-.25h5.06c1.66 0 3.01 1.36 3.01 3.02"/></defs></svg>