<svg xmlns="http://www.w3.org/2000/svg" xmlns:xlink="http://www.w3.org/1999/xlink" width="44" height="50" xmlns:v="https://vecta.io/nano"><defs><path id="A" d="M0 .308h43.942V18.68H0z"/></defs><g fill="none" fill-rule="evenodd"><path d="M19.663 19.736a13.16 13.16 0 0 0-3.462 8.044c-.959-.382-1.984-.569-3.018-.551a8.22 8.22 0 0 0-2.709.423c.886-3.701 4.461-6.721 9.189-7.916m4.507-.563c3.323 0 6.078 3.852 6.517 8.836-1.875-.569-3.828-.828-5.786-.771v-.01h-1.465v.01c-1.958-.057-3.911.202-5.786.771.44-4.984 3.193-8.836 6.519-8.836m13.694 8.479a8.22 8.22 0 0 0-2.709-.423c-1.033-.018-2.06.169-3.019.551a13.16 13.16 0 0 0-3.46-8.044c4.726 1.196 8.303 4.215 9.189 7.916M9.521 30.179a.71.71 0 0 0 .733-.692v-.02c.092-.221 1.112-.774 2.929-.774s2.837.553 2.929.733c-.002.402.323.73.723.73.315.002.594-.197.694-.494.011-.015.018-.03.023-.048.428-.313 2.48-.848 5.884-.913v5.118h1.465v-5.118c3.405.067 5.456.6 5.883.913.007.018.013.033.025.048.125.379.535.584.913.459.284-.095.481-.354.494-.653.102-.223 1.122-.776 2.939-.776s2.837.553 2.929.733a.733.733 0 1 0 1.465 0c0-6.462-6.899-11.718-15.378-11.718S8.79 22.965 8.79 29.426a.75.75 0 0 0 .731.753M20.23 7.3a10.34 10.34 0 0 0-2.194 5.442 6.21 6.21 0 0 0-2.106-.343c-.599-.003-1.197.074-1.774.231.718-2.414 3.023-4.397 6.075-5.33m3.939-.577c2.335 0 4.28 2.67 4.681 6.176-1.532-.371-3.106-.54-4.681-.5a18 18 0 0 0-4.682.5c.4-3.506 2.345-6.176 4.682-6.176m10.012 5.907a6.6 6.6 0 0 0-1.773-.231c-.717-.008-1.43.108-2.107.343-.19-1.988-.951-3.877-2.193-5.442 3.05.933 5.355 2.916 6.073 5.33m-20.999 2.332a.72.72 0 0 0 .692-.535c.02-.03.031-.066.034-.102a3.51 3.51 0 0 1 2.02-.462 3.5 3.5 0 0 1 2.019.462l.016.008a.72.72 0 0 0 .805.626c.264-.033.49-.21.585-.459 1.317-.458 2.696-.666 4.08-.625v2.367H24.9v-2.367a11.55 11.55 0 0 1 4.075.615.73.73 0 0 0 .938.428c.249-.095.426-.321.459-.585l.015-.008a3.51 3.51 0 0 1 2.02-.462c.704-.052 1.409.108 2.02.462a.22.22 0 0 0 .033.102c.102.382.492.61.874.51.274-.072.479-.298.525-.577.02-.041.028-.085.025-.131 0-4.943-5.258-8.971-11.718-8.971s-11.718 4.028-11.718 8.971c-.003.046.007.09.026.131a.72.72 0 0 0 .705.602" fill="#171436"/><g transform="translate(0 30.52)"><mask id="B" fill="#fff"><use xlink:href="#A"/></mask><path d="M42.133 4.714l-14.976 9.3a6.41 6.41 0 0 1-4.453.879l-9.1-1.32c-.731-.123-1.478-.12-2.209.011l-1.95.349-1.607-9.259.512-.333c2.498-1.629 5.697-1.712 8.277-.22l3.954 2.28a3.62 3.62 0 0 0 3.349.141l6.02-2.829c1.25-.584 2.737-.087 3.387 1.13a.74.74 0 0 1-.292.997l-8.328 4.554a6.44 6.44 0 0 1-4.766.585l-7.293-2.016-.39 1.414 7.3 2.017a7.93 7.93 0 0 0 5.855-.713l8.321-4.553c.694-.384 1.127-1.112 1.133-1.904l4.931-2.309c.928-.431 2.035-.093 2.563.784a.75.75 0 0 1-.238 1.014h0zM4.088 17.096L1.58 2.662l4.284-.766 2.508 14.432-4.284.768zM43.62 2.935a3.47 3.47 0 0 0-4.438-1.348l-4.779 2.237c-1.105-1.671-3.267-2.283-5.082-1.435l-6.02 2.827c-.638.298-1.379.267-1.988-.085l-3.954-2.28c-3.054-1.768-6.84-1.671-9.797.251L7.183.917a.73.73 0 0 0-.846-.599L.605 1.345c-.397.071-.663.449-.594.846l2.757 15.882c.034.192.143.362.303.474a.72.72 0 0 0 .394.133c.052.002.103-.002.156-.011l5.727-1.025c.397-.072.663-.451.594-.848l-.248-1.42 1.958-.349c.569-.103 1.153-.105 1.724-.008l9.1 1.319c1.888.318 3.828-.064 5.455-1.076l14.976-9.302c1.025-.645 1.342-1.991.713-3.024h0z" fill="#171436" mask="url(#B)"/></g><path d="M3.24 34.376l1.443-.249.249 1.44-1.443.251zm35.827-11.433c-.205 0-.4-.113-.494-.308-1.084-2.224-2.865-2.942-2.885-2.95a.55.55 0 0 1-.312-.708.55.55 0 0 1 .707-.317c.089.034 2.194.863 3.475 3.495a.55.55 0 0 1-.253.733.54.54 0 0 1-.239.056M14.155 6.85a.55.55 0 0 1-.549-.549V3.992a.55.55 0 0 1 .549-.549.55.55 0 0 1 .549.549v2.309a.55.55 0 0 1-.549.549m2.22-1.81a.55.55 0 0 1-.549-.549V.549A.55.55 0 0 1 16.375 0a.55.55 0 0 1 .549.549V4.49a.55.55 0 0 1-.549.549" fill="#eb9aa7"/></g></svg>