<svg xmlns="http://www.w3.org/2000/svg" xmlns:xlink="http://www.w3.org/1999/xlink" width="41" height="43" xmlns:v="https://vecta.io/nano"><defs><path id="A" d="M0 0h40.12v42.34H0z"/></defs><g fill-rule="evenodd"><path d="M33.71 20.493h0c-.208-.104-.445-.12-.663-.047s-.4.229-.504.437a.86.86 0 0 0-.046.663c.047.141.128.265.234.363l-.015.03.21.106.009.005.222.11.015-.032a.88.88 0 0 0 .928-.468.87.87 0 0 0-.39-1.167M18.062 33.861H.686c-.163 0-.294.358-.294.8s.131.8.294.8h17.376c.163 0 .294-.358.294-.8s-.131-.8-.294-.8" fill="#ea9aa6"/><mask id="B" fill="#fff"><use xlink:href="#A"/></mask><g fill="#4196d2"><path d="M8.64 9.15c0-4.16 3.39-7.54 7.55-7.54a7.55 7.55 0 0 1 7.54 7.54 7.55 7.55 0 0 1-7.54 7.54c-4.16 0-7.55-3.38-7.55-7.54m30.792 13.315c-1.388-.294-2.68-.673-3.845-1.129a.87.87 0 0 0-1.121.496c-.079.211-.074.445.017.673a.87.87 0 0 0 .476.448c1.04.409 2.164.758 3.431 1.064v5.523c0 .943-.474 2.254-1.324 3.675-.016.022-1.589 2.236-2.184 2.9-.643.731-2.829 2.741-2.826 2.741l-1.227.871c-.923.571-1.707.873-2.269.873s-1.368-.31-2.255-.864l-1.232-.874c-.808-.627-1.676-1.437-2.509-2.341a22.87 22.87 0 0 1-1.268-1.503l-1.232-1.788c-.86-1.42-1.334-2.73-1.334-3.69v-5.532c2.4-.566 4.558-1.408 6.414-2.502a20.61 20.61 0 0 0 1.46-.921c.698-.492 1.247-.941 1.688-1.302l.07-.063.197-.165.232.198.057.046c.554.455 1.244 1.023 2.167 1.631a.88.88 0 0 0 .638.126.84.84 0 0 0 .564-.376c.129-.19.176-.429.127-.656a.84.84 0 0 0-.375-.542 23.36 23.36 0 0 1-2.072-1.577l-.107-.086-.729-.575c-.307-.209-.71-.208-1.005.002-.245.173-.512.39-.833.659l-.141.114c-.478.387-1.073.868-1.804 1.365-.029.02-.058.037-.087.057-1.148-.777-2.388-1.401-3.711-1.861l-.93-.33.81-.56c2.49-1.71 3.98-4.53 3.98-7.54A9.17 9.17 0 0 0 16.19 0c-5.05 0-9.15 4.11-9.15 9.15 0 3.01 1.48 5.83 3.97 7.54l.82.56-.94.33c-2.32.8-4.39 2.1-6.15 3.86C1.8 24.38.13 28.25 0 32.39h1.61c.27-7.82 6.7-14.09 14.58-14.09 2.723 0 5.257.756 7.441 2.06-1.692.91-3.691 1.621-5.953 2.105a.88.88 0 0 0-.688.855v6.22c0 1.163.438 2.54 1.302 4.092.755 1.347 1.79 2.753 2.994 4.067 2.05 2.243 5.039 4.641 7.274 4.641 2.22 0 5.213-2.397 7.274-4.641.53-.58 1.03-1.182 1.464-1.764.068-.069 1.148-1.625 1.53-2.304.857-1.54 1.292-2.917 1.292-4.091v-6.22c0-.412-.29-.772-.688-.855" fill="#171436" mask="url(#B)"/><path d="M31.783 26.053a.59.59 0 0 0-.59-.58h-5.48c-.33 0-.6.26-.6.58a.6.6 0 0 0 .6.59h1.68c.69.04 1.28.48 1.52 1.09l.02.03h-3.22a.6.6 0 0 0-.6.59l.01.07c.03.29.28.52.59.52l3.22-.01-.02.05a1.76 1.76 0 0 1-1.64 1.11h-1.56a.58.58 0 0 0-.59.6c0 .15.06.3.17.41l3.93 3.66c.24.22.61.21.83-.02l.05-.06a.58.58 0 0 0-.06-.77l-2.84-2.65h.21c1.32-.06 2.42-.99 2.72-2.23l.03-.1 1.03.01a.6.6 0 0 0 .59-.59l-.01-.07c-.03-.29-.28-.52-.58-.52h-1.03a3 3 0 0 0-.5-1.09l-.02-.03h1.55a.6.6 0 0 0 .59-.59" fill="#171436"/></g></g></svg>