<svg xmlns="http://www.w3.org/2000/svg" xmlns:xlink="http://www.w3.org/1999/xlink" width="50" height="34" xmlns:v="https://vecta.io/nano"><defs><path id="A" d="M0 0h50v34H0z"/></defs><g fill-rule="evenodd"><mask id="B" fill="#fff"><use xlink:href="#A"/></mask><path d="M45.652 30.026c-.949.868-2.121 1.501-3.411 1.782a7.43 7.43 0 0 1-1.617.176 7.51 7.51 0 0 1-7.489-7.503 7.51 7.51 0 0 1 7.489-7.503 7.22 7.22 0 0 1 3.176.727c.703.317 1.348.75 1.91 1.29a7.39 7.39 0 0 1 2.414 5.487c0 2.204-.949 4.186-2.473 5.546h0zM8.568 32.113c-1.571 0-2.86-1.278-2.86-2.837v-6.612h8.568c3.68 0 6.669-2.966 6.669-6.612S17.956 9.45 14.276 9.45H5.708V4.725c0-1.559 1.289-2.837 2.86-2.837H40.94c1.582 0 2.86 1.278 2.86 2.837v10.939a9.19 9.19 0 0 0-3.176-.563c-5.169 0-9.365 4.209-9.365 9.379 0 3.142 1.559 5.932 3.938 7.632H8.568zm-5.72-11.337c-.516 0-.949-.422-.949-.938v-7.562c0-.516.434-.938.949-.938h11.428c2.625 0 4.77 2.11 4.77 4.713s-2.145 4.725-4.77 4.725H2.848zm42.862-4.162V4.725C45.71 2.122 43.566 0 40.94 0H8.568C5.942 0 3.809 2.122 3.809 4.725V9.45h-.961A2.84 2.84 0 0 0 0 12.275v7.562a2.84 2.84 0 0 0 2.848 2.826h.961v6.612C3.809 31.878 5.942 34 8.568 34H40.94c.692 0 1.348-.141 1.934-.41C46.964 32.57 50 28.877 50 24.48c0-3.294-1.711-6.19-4.29-7.867h0z" fill="#171436" mask="url(#B)"/><path d="M14 16a1 1 0 1 1 2 0 1 1 0 1 1-2 0m4 0c0-1.654-1.346-3-3-3s-3 1.346-3 3 1.346 3 3 3 3-1.346 3-3m23.747 2.99l-.018 5.028 2.412.011c.476.002.86.446.859.989s-.39.984-.867.982l-3.274-.015a.81.81 0 0 1-.609-.292 1.06 1.06 0 0 1-.25-.698l.02-6.013c.003-.543.391-.983.867-.982s.86.447.859.99" fill="#eb9aa6"/></g></svg>