<?xml version="1.0" encoding="UTF-8"?>
<svg width="27px" height="27px" viewBox="0 0 27 27" version="1.1" xmlns="http://www.w3.org/2000/svg" xmlns:xlink="http://www.w3.org/1999/xlink">
    <title>Know your premium payment options</title>
    <g id="Customer-Service-Landing" stroke="none" stroke-width="1" fill="none" fill-rule="evenodd">
        <g id="TataAIA_Customer_service-desktop-Landing-1" transform="translate(-110.000000, -1928.000000)" fill-rule="nonzero" stroke-width="0.4">
            <g id="Group-8" transform="translate(83.000000, 1902.000000)">
                <g id="Group-7" transform="translate(15.000000, 15.000000)">
                    <g id="Know-your-premium-payment-options" transform="translate(13.000000, 12.000000)">
                        <path d="M10.3178571,3.86785714 C10.1615724,3.90734423 10.0275764,4.00770601 9.94572955,4.14657732 C9.86388269,4.28544863 9.84098634,4.45128943 9.88214286,4.60714286 C9.97088738,4.95741819 10.0164637,5.31723162 10.0178571,5.67857143 C10.0192237,7.6759095 8.66023493,9.41752713 6.72248574,9.90176812 C4.78473656,10.3860091 2.76621517,9.48842686 1.82783338,7.72524767 C0.889451595,5.96206848 1.27236706,3.78641727 2.75635369,2.44957587 C4.24034032,1.11273447 6.44402376,0.958261925 8.1,2.075 C8.37669698,2.2484764 8.7410494,2.1719954 8.92463669,1.901901 C9.10822399,1.6318066 9.04526539,1.26487576 8.78214286,1.07142857 C6.55922469,-0.424043229 3.5853042,-0.118059516 1.71346889,1.79871739 C-0.15836641,3.71549429 -0.393718965,6.69583626 1.15406239,8.8826545 C2.70184374,11.0694727 5.59087685,11.838444 8.02096863,10.7104125 C10.4510604,9.58238098 11.7284345,6.87939288 11.0571429,4.28571429 C10.966941,3.9673085 10.6371685,3.78091532 10.3178571,3.86785714 L10.3178571,3.86785714 Z" id="Path" stroke="#171436" fill="#171436"></path>
                        <path d="M19.3285714,11.257144 C21.5794394,11.2585876 23.6094757,9.90380924 24.4718468,7.82469294 C25.3342179,5.74557664 24.8590432,3.3516926 23.2679499,1.75957743 C21.6768566,0.167462254 19.2832782,-0.309249365 17.2036086,0.55178666 C15.1239391,1.41282269 13.7678571,3.44198875 13.7678571,5.69285714 C13.7717874,8.76290412 16.2585276,11.2512414 19.3285714,11.257144 L19.3285714,11.257144 Z M19.3285714,1.34637543 C21.0902312,1.33775092 22.683191,2.39246167 23.3630368,4.01767861 C24.0428826,5.64289555 23.675368,7.5176939 22.4322382,8.76595215 C21.1891084,10.0142104 19.3158389,10.3894402 17.6878369,9.71629104 C16.0598349,9.04314188 14.998575,7.45453769 14.9999986,5.69285714 C15.0038849,3.30096202 16.9367126,1.36016068 19.3285714,1.34637543 L19.3285714,1.34637543 Z" id="Shape" stroke="#171436" fill="#171436"></path>
                        <path d="M5.67142857,13.742856 C3.42056064,13.7414124 1.39052432,15.0961908 0.528153209,17.1753071 C-0.3342179,19.2544234 0.140956813,21.6483074 1.73205009,23.2404226 C3.32314336,24.8325377 5.71672182,25.3092494 7.79639138,24.4482133 C9.87606095,23.5871773 11.2321429,21.5580113 11.2321429,19.3071429 C11.2282126,16.2370959 8.74147239,13.7487586 5.67142857,13.742856 L5.67142857,13.742856 Z M5.67142857,23.6535729 C3.91136863,23.6550159 2.32387926,22.5957022 1.64966606,20.9698948 C0.975452866,19.3440874 1.34739337,17.4722091 2.59194411,16.2276584 C3.83649485,14.9831077 5.70837313,14.6111672 7.33418051,15.2853803 C8.95998789,15.9595935 10.0193016,17.5470829 10.0178586,19.3071429 C10.0139246,21.7059783 8.07026399,23.6496389 5.67142857,23.6535729 L5.67142857,23.6535729 Z" id="Shape" stroke="#171436" fill="#171436"></path>
                        <path d="M19.3285714,13.7428571 C16.2555013,13.7428571 13.7642857,16.2340727 13.7642857,19.3071429 C13.7642857,22.380213 16.2555013,24.8714286 19.3285714,24.8714286 C22.4016416,24.8714286 24.8928571,22.380213 24.8928571,19.3071429 C24.8889219,16.2357042 22.4000101,13.7467924 19.3285714,13.7428571 L19.3285714,13.7428571 Z M19.3285714,23.6535714 C17.5688358,23.6535714 15.9824425,22.5933405 15.3093549,20.9674184 C14.6362674,19.3414963 15.0090899,17.4702039 16.2539219,16.226394 C17.4987538,14.9825841 19.3703518,14.6112986 20.9957205,15.2857214 C22.6210892,15.9601442 23.6800162,17.5474078 23.6785729,19.3071429 C23.6766001,21.7081867 21.7296161,23.6535714 19.3285714,23.6535714 L19.3285714,23.6535714 Z" id="Shape" stroke="#171436" fill="#171436"></path>
                        <polygon id="Path" stroke="#EB9AA7" fill="#EB9AA7" points="5.46071429 6.26785714 3.975 4.77857143 3.11428571 5.63928571 5.46071429 7.98571429 12.0571429 1.38928571 11.1964286 0.532142857"></polygon>
                    </g>
                </g>
            </g>
        </g>
    </g>
</svg>